{"glyphs":{":":{"x_min":0,"x_max":293,"ha":293,"o":"m 173 368 q 179 393 200 410 q 221 428 246 428 q 271 428 283 410 q 292 397 292 382 q 292 376 291 368 q 283 342 264 326 q 242 308 217 308 q 193 308 180 326 q 171 338 171 352 q 171 359 173 368 z m 99 50 q 105 75 126 92 q 147 110 172 110 q 197 110 209 92 q 219 80 219 64 q 219 59 217 50 q 209 24 190 8 q 168 -10 144 -10 q 119 -10 106 8 q 97 20 97 34 q 97 41 99 50 z"},"$":{"x_min":0,"x_max":620,"ha":620,"o":"m 105 141 l 193 179 l 198 179 q 224 84 299 74 l 369 376 q 314 393 278 424 q 235 460 235 514 q 235 533 240 553 q 262 640 337 697 q 389 737 454 745 l 473 830 l 531 854 l 536 854 l 511 746 q 601 735 632 636 l 546 599 l 542 599 q 528 650 491 661 l 444 457 q 531 438 576 380 q 607 340 607 285 q 606 259 600 230 q 580 138 491 64 q 420 4 337 -7 l 317 -93 l 260 -117 l 255 -117 l 280 -9 q 149 0 105 141 z m 391 472 l 434 659 q 408 652 386 634 q 351 605 340 560 q 337 548 337 538 q 337 514 351 499 q 364 483 391 472 z m 422 362 l 356 79 q 399 91 442 129 q 486 168 502 233 q 506 250 506 264 q 506 294 490 316 q 468 347 422 362 z"},"?":{"x_min":0,"x_max":600,"ha":600,"o":"m 233 50 q 239 75 260 92 q 281 110 306 110 q 331 110 343 92 q 353 80 353 64 q 353 59 351 50 q 343 24 324 8 q 302 -10 277 -10 q 253 -10 240 8 q 231 20 231 34 q 231 41 233 50 z m 196 597 q 313 747 458 747 q 575 747 623 676 q 652 633 652 575 q 652 545 645 512 q 611 367 425 290 q 385 273 373 222 l 268 176 l 263 176 q 294 308 390 353 q 525 416 548 512 q 554 539 554 561 q 554 595 540 617 q 510 664 439 664 q 350 664 271 559 l 267 559 z"},"<":{"x_min":0,"x_max":653,"ha":653,"o":"m 148 324 l 149 329 l 209 414 l 651 585 l 671 500 l 670 496 l 305 360 l 607 225 l 606 220 l 547 136 z"},"'":{"x_min":0,"x_max":228,"ha":228,"o":"m 324 757 l 329 757 l 274 521 l 190 484 l 185 484 l 240 721 z"},"=":{"x_min":0,"x_max":593,"ha":593,"o":"m 168 413 l 170 418 l 229 502 l 635 502 l 634 497 l 575 413 z m 127 235 l 129 240 l 188 324 l 594 324 l 593 319 l 534 235 z"},"a":{"x_min":0,"x_max":573,"ha":573,"o":"m 277 -10 q 168 -10 133 103 q 123 134 123 172 q 123 216 135 269 q 160 372 208 434 q 296 547 406 547 q 516 547 550 434 q 559 403 559 365 q 559 321 547 269 l 504 85 q 500 63 523 63 l 561 63 l 560 59 l 505 -20 q 403 -20 403 54 q 403 68 407 85 l 449 269 q 463 329 463 367 q 463 385 459 399 q 441 464 386 464 q 331 464 284 399 q 254 359 233 269 q 219 209 219 172 q 219 152 223 138 q 241 74 295 73 l 333 73 l 332 68 z"},"L":{"x_min":0,"x_max":541,"ha":541,"o":"m 220 0 q 118 0 118 73 q 118 87 122 104 l 262 713 l 365 757 l 370 757 l 219 104 q 214 83 239 83 l 407 83 q 465 83 493 140 l 498 140 l 563 105 q 509 0 388 0 z"},"3":{"x_min":0,"x_max":610,"ha":610,"o":"m 96 141 q 96 141 184 179 l 188 179 q 219 73 308 73 q 377 73 431 123 q 478 165 493 229 q 499 255 499 275 q 499 308 483 329 q 455 367 375 367 l 330 422 l 537 654 l 280 654 l 281 659 l 336 737 l 563 737 q 637 737 637 689 q 637 680 635 670 q 626 633 568 571 l 445 444 q 517 442 562 393 q 598 353 598 292 q 598 263 590 230 q 566 130 486 61 q 403 -10 289 -10 q 143 -10 96 141 z"},";":{"x_min":0,"x_max":293,"ha":293,"o":"m 197 136 l 202 136 q 232 98 232 52 q 232 35 228 17 q 208 -76 72 -140 l 57 -115 q 124 -60 136 -10 q 139 2 139 13 q 139 59 94 92 z m 173 368 q 179 393 200 410 q 221 428 246 428 q 271 428 283 410 q 292 397 292 382 q 292 376 291 368 q 283 342 264 326 q 242 308 217 308 q 193 308 180 326 q 171 338 171 352 q 171 359 173 368 z"},"J":{"x_min":0,"x_max":639,"ha":639,"o":"m 71 141 l 159 179 l 164 179 q 193 73 284 73 q 375 73 451 179 q 500 247 528 369 l 589 633 q 594 654 570 654 l 310 654 l 312 659 l 366 737 l 589 737 q 691 737 691 665 q 691 650 687 633 l 626 369 q 593 228 526 141 q 410 -10 264 -10 q 118 -10 71 141 z"},"V":{"x_min":0,"x_max":720,"ha":720,"o":"m 262 713 l 365 757 l 370 757 l 280 369 q 261 287 261 234 q 261 200 270 179 q 309 73 389 73 q 479 73 557 179 q 604 242 634 369 q 652 445 652 499 q 652 533 645 559 q 620 644 544 684 l 598 757 l 603 757 q 700 721 737 597 q 749 558 749 507 q 749 446 731 369 q 699 228 632 141 q 515 -10 370 -10 q 224 -10 177 141 q 165 179 165 229 q 165 291 183 369 z"},"\"":{"x_min":0,"x_max":365,"ha":365,"o":"m 461 757 l 466 757 l 412 521 l 327 484 l 322 484 l 377 721 z m 324 757 l 329 757 l 274 521 l 190 484 l 185 484 l 240 721 z"},"7":{"x_min":0,"x_max":478,"ha":478,"o":"m 113 22 l 485 654 l 156 654 l 157 659 l 212 737 l 505 737 q 583 737 583 678 q 583 665 579 649 q 574 627 521 540 l 197 -20 l 192 -20 z"},"S":{"x_min":0,"x_max":591,"ha":591,"o":"m 91 141 q 91 141 179 179 l 184 179 q 212 73 303 73 q 366 73 428 129 q 472 169 487 233 q 491 250 491 264 q 491 293 475 315 q 446 354 380 369 q 308 385 263 424 q 221 460 221 515 q 221 532 226 553 q 247 641 322 697 q 389 747 473 747 q 583 747 618 636 l 532 599 l 527 599 q 509 664 454 664 q 408 664 372 634 q 336 605 325 560 q 322 548 322 538 q 322 514 337 499 q 363 470 428 457 q 516 438 561 380 q 592 340 592 285 q 592 259 585 230 q 565 139 477 64 q 389 -10 284 -10 q 138 -10 91 141 z"},"}":{"x_min":0,"x_max":440,"ha":440,"o":"m -2 -117 l -1 -112 l 54 -34 q 125 -34 178 15 q 224 57 240 127 l 352 610 q 358 639 358 662 q 358 698 342 723 q 311 771 240 771 l 203 771 l 204 776 l 259 854 q 371 854 423 784 q 457 738 457 675 q 457 644 449 610 l 403 413 l 511 413 l 510 408 l 451 324 l 383 324 l 337 127 q 313 21 231 -46 q 146 -117 35 -117 z"},"Z":{"x_min":0,"x_max":590,"ha":590,"o":"m 153 0 q 72 0 72 48 q 72 56 74 65 q 85 119 149 191 l 552 654 l 242 654 l 244 659 l 298 737 l 572 737 q 655 737 655 688 q 655 680 653 671 q 640 620 575 546 l 172 83 l 400 83 q 458 83 485 140 l 490 140 l 556 105 q 502 0 381 0 z"},"x":{"x_min":0,"x_max":515,"ha":515,"o":"m 134 -20 l 129 -20 l 54 21 l 250 254 q 191 292 168 351 q 157 378 157 417 q 157 458 169 513 l 272 557 l 277 557 q 254 458 254 413 q 254 397 258 386 q 274 343 306 321 l 504 557 l 509 557 l 585 516 l 387 281 q 452 242 474 186 q 485 159 485 121 q 485 78 472 24 l 369 -20 l 364 -20 q 386 74 386 124 q 386 140 383 151 q 375 192 332 215 z"},")":{"x_min":0,"x_max":382,"ha":382,"o":"m 34 -117 l 14 -44 q 110 -3 172 81 q 221 147 250 271 l 294 466 q 312 542 312 597 q 312 631 305 656 q 280 742 205 782 l 258 854 l 263 854 q 360 818 398 694 q 410 654 410 604 q 410 542 392 466 l 347 271 q 315 132 248 43 q 153 -81 39 -117 z"},"&":{"x_min":0,"x_max":763,"ha":763,"o":"m 384 -20 q 204 -20 149 60 q 118 105 118 165 q 118 195 126 229 q 149 328 236 391 q 263 411 282 419 q 240 462 240 517 q 240 535 245 555 q 267 650 339 700 q 408 747 492 747 q 602 747 637 636 l 551 599 l 546 599 q 528 664 472 664 q 422 664 386 634 q 347 602 337 555 q 335 543 335 532 q 335 508 349 487 q 372 455 426 452 q 480 449 520 449 q 519 444 519 433 q 519 417 521 386 q 524 329 553 301 l 700 477 l 705 477 l 768 437 l 622 261 q 666 239 695 194 q 709 172 709 129 q 709 87 695 24 l 592 -20 l 587 -20 q 613 92 613 132 q 613 166 566 195 z m 422 372 q 338 372 294 337 q 239 292 223 228 q 217 206 217 186 q 217 149 234 120 q 260 74 361 74 l 498 234 q 437 264 422 372 z"},"_":{"x_min":0,"x_max":593,"ha":593,"o":"m 27 -200 l 28 -195 l 87 -111 l 494 -111 l 493 -116 l 434 -200 z"},"v":{"x_min":0,"x_max":573,"ha":573,"o":"m 206 513 l 309 557 l 314 557 l 248 269 q 234 208 234 170 q 234 151 237 138 q 256 73 311 73 q 366 73 413 138 q 443 178 464 269 q 477 323 477 364 q 477 383 474 399 q 462 463 408 484 l 461 557 l 466 557 q 543 523 564 434 q 573 400 573 362 q 573 318 562 269 q 539 168 488 103 q 400 -10 291 -10 q 182 -10 147 103 q 138 133 138 171 q 138 214 150 269 z"},"O":{"x_min":0,"x_max":695,"ha":695,"o":"m 256 369 q 238 291 238 237 q 238 203 245 178 q 274 73 365 73 q 454 73 532 179 q 581 244 609 369 q 627 445 627 499 q 627 533 620 559 q 592 664 501 664 q 411 664 333 559 q 284 492 256 369 z m 158 368 q 191 511 258 597 q 375 747 520 747 q 667 747 713 597 q 725 558 725 508 q 725 448 707 369 q 675 227 607 141 q 490 -10 345 -10 q 200 -10 152 140 q 140 178 140 229 q 140 292 158 368 z"},"(":{"x_min":0,"x_max":382,"ha":382,"o":"m 294 -117 l 290 -117 q 191 -81 154 43 q 143 83 143 133 q 143 194 160 271 l 205 466 q 238 606 305 694 q 399 818 514 854 l 519 854 l 539 782 q 441 740 380 656 q 332 590 303 466 l 258 271 q 240 194 240 140 q 240 106 247 81 q 271 -3 348 -44 z"},"C":{"x_min":0,"x_max":667,"ha":667,"o":"m 662 231 q 642 186 607 141 q 492 -10 345 -10 q 200 -10 152 141 q 140 179 140 229 q 140 291 158 369 q 191 511 258 597 q 375 747 520 747 q 666 747 713 597 l 625 559 l 620 559 q 592 664 501 664 q 411 664 333 559 q 284 492 256 369 q 238 291 238 237 q 238 204 245 179 q 274 73 365 73 q 455 73 532 179 l 657 231 z"},"W":{"x_min":0,"x_max":1146,"ha":1146,"o":"m 797 757 l 707 369 q 689 292 689 237 q 689 203 696 179 q 726 73 816 73 q 905 73 983 179 q 1032 245 1061 369 q 1078 446 1078 500 q 1078 533 1071 559 q 1048 643 971 684 l 1024 757 l 1029 757 q 1127 721 1164 597 q 1176 557 1176 507 q 1176 447 1158 369 q 1125 228 1059 141 q 943 -10 796 -10 q 653 -10 605 137 q 489 -10 345 -10 q 199 -10 152 141 q 140 180 140 230 q 140 292 158 369 q 192 513 257 585 q 298 630 338 654 l 200 654 l 201 659 l 256 737 l 526 737 l 524 732 l 470 654 q 398 632 344 562 q 282 485 256 369 q 238 292 238 237 q 238 203 245 179 q 274 73 365 73 q 454 73 532 179 q 581 245 609 369 l 689 713 l 792 757 z"},"A":{"x_min":0,"x_max":710,"ha":710,"o":"m 83 -20 l 173 369 q 206 511 272 597 q 390 747 535 747 q 680 747 728 597 q 740 558 740 508 q 740 446 722 369 q 688 224 623 152 q 583 108 542 83 l 680 83 l 679 78 l 625 0 l 354 0 l 355 5 l 410 83 q 482 105 537 175 q 596 250 614 327 l 261 327 l 191 24 l 88 -20 z m 281 410 l 633 410 q 642 460 642 499 q 642 533 635 559 q 607 664 516 664 q 424 664 348 560 q 308 504 281 410 z"},"f":{"x_min":0,"x_max":408,"ha":408,"o":"m 83 -20 l 196 469 q 220 570 270 634 q 357 747 466 747 l 532 747 l 531 742 l 476 664 l 447 664 q 393 664 344 600 q 318 565 298 488 l 472 488 l 471 483 l 417 405 l 279 405 l 191 24 l 88 -20 z"},"Q":{"x_min":0,"x_max":695,"ha":695,"o":"m 345 -10 q 200 -10 152 141 q 140 179 140 229 q 140 291 158 369 q 191 511 258 597 q 375 747 520 747 q 667 747 713 597 q 725 558 725 508 q 725 448 707 369 q 675 227 607 141 q 578 103 547 75 l 618 -77 l 522 -118 l 518 -118 l 410 115 l 505 156 l 510 156 l 511 152 q 522 165 532 179 q 581 244 609 369 q 627 445 627 499 q 627 533 620 559 q 592 664 501 664 q 411 664 333 559 q 285 493 256 369 q 238 291 238 237 q 238 203 245 179 q 265 112 307 88 z"},"w":{"x_min":0,"x_max":872,"ha":872,"o":"m 613 557 l 547 269 q 533 208 533 170 q 533 151 537 138 q 553 73 610 73 q 665 73 712 138 q 742 178 763 269 q 776 323 776 364 q 776 383 773 399 q 761 463 708 484 l 761 557 l 766 557 q 842 523 864 434 q 872 400 872 362 q 872 318 861 269 q 838 169 788 103 q 701 -10 590 -10 q 493 -10 455 80 q 374 -10 277 -10 q 169 -10 132 103 q 123 133 123 171 q 123 216 135 269 q 163 387 274 454 l 154 454 l 155 459 l 209 537 l 438 537 l 437 532 l 382 454 q 313 413 283 374 q 246 327 233 269 q 219 209 219 171 q 219 151 223 138 q 239 73 296 73 q 352 73 399 138 q 428 178 449 269 l 505 513 l 608 557 z"},"-":{"x_min":0,"x_max":593,"ha":593,"o":"m 148 324 l 149 329 l 208 413 l 615 413 l 614 408 l 555 324 z"},"E":{"x_min":0,"x_max":667,"ha":667,"o":"m 662 231 q 642 186 607 141 q 492 -10 345 -10 q 200 -10 152 141 q 140 179 140 229 q 140 291 158 369 q 191 511 258 597 q 375 747 520 747 q 666 747 713 597 l 625 559 l 620 559 q 592 664 501 664 q 410 664 333 559 q 293 504 267 410 l 559 410 l 558 405 l 503 327 l 248 327 q 238 275 238 236 q 238 203 245 179 q 275 73 365 73 q 455 73 532 179 l 657 231 z"},"s":{"x_min":0,"x_max":490,"ha":490,"o":"m 82 102 q 82 102 167 138 l 172 138 q 190 73 246 73 q 299 73 336 108 q 367 137 375 171 q 377 182 377 191 q 377 213 363 228 q 341 250 293 257 q 232 267 201 294 q 168 322 168 367 q 168 383 173 403 q 188 470 261 515 q 312 547 370 547 q 466 547 488 454 l 402 418 l 397 418 q 386 464 350 464 q 321 464 299 449 q 274 432 266 401 q 264 393 264 387 q 264 367 280 358 q 303 345 351 334 q 412 321 444 291 q 475 261 475 211 q 475 191 469 166 q 456 103 385 45 q 319 -10 226 -10 q 117 -10 82 102 z"},">":{"x_min":0,"x_max":653,"ha":653,"o":"m 671 396 l 670 392 l 611 307 l 169 136 l 148 220 l 149 225 l 515 360 l 212 496 l 213 500 l 273 585 z"},"l":{"x_min":0,"x_max":293,"ha":293,"o":"m 215 -20 q 113 -20 113 54 q 113 68 117 85 l 262 713 l 365 757 l 370 757 l 215 85 q 210 63 233 63 l 271 63 l 270 59 z"},"8":{"x_min":0,"x_max":639,"ha":639,"o":"m 127 231 q 149 327 239 396 q 258 410 282 421 q 240 463 240 517 q 240 534 244 553 q 267 650 339 700 q 406 747 492 747 q 576 747 623 700 q 656 667 656 610 q 656 584 649 553 q 632 476 551 421 q 570 410 583 396 q 625 345 625 281 q 625 257 619 230 q 597 131 514 61 q 431 -10 316 -10 q 202 -10 152 62 q 120 109 120 170 q 120 199 127 231 z m 336 73 q 407 73 464 125 q 506 164 521 229 q 525 249 525 267 q 525 301 508 327 q 477 374 406 374 q 336 374 282 327 q 239 291 224 229 q 218 205 218 185 q 218 150 234 125 q 268 73 336 73 z m 391 640 q 355 610 344 560 q 339 539 339 522 q 339 500 349 487 q 378 450 423 450 q 472 450 515 487 q 543 512 554 560 q 558 578 558 593 q 558 620 543 640 q 521 670 474 670 q 427 670 391 640 z"},"\\":{"x_min":0,"x_max":476,"ha":476,"o":"m 381 -68 l 183 772 l 260 806 l 265 806 l 462 -35 l 386 -68 z"},"e":{"x_min":0,"x_max":551,"ha":551,"o":"m 520 184 q 500 137 474 103 q 386 -10 276 -10 q 170 -10 132 103 q 123 132 123 170 q 123 215 135 269 q 158 368 208 434 q 295 547 405 547 q 489 547 528 495 q 559 454 559 408 q 559 390 555 372 q 537 297 474 242 q 411 187 319 187 l 282 187 l 283 191 l 337 270 q 390 270 419 298 q 448 326 460 373 q 463 385 463 396 q 463 419 450 437 q 430 464 386 464 q 326 464 283 399 q 252 353 233 269 q 219 208 219 170 q 219 151 223 138 q 241 73 296 73 q 352 73 398 138 l 515 184 z"},"b":{"x_min":0,"x_max":573,"ha":573,"o":"m 252 713 l 355 757 l 360 757 l 248 269 q 234 208 234 170 q 234 151 237 138 q 256 73 311 73 q 366 73 413 138 q 443 178 464 269 q 478 328 478 365 q 478 385 474 399 q 456 463 401 464 l 364 464 l 365 469 l 420 547 q 528 547 564 434 q 574 403 574 365 q 574 321 562 269 q 538 166 488 103 q 400 -10 291 -10 q 185 -10 147 103 q 137 132 137 170 q 137 213 150 269 z"},"%":{"x_min":0,"x_max":1002,"ha":1002,"o":"m 875 186 q 882 213 882 234 q 882 263 871 282 q 854 309 820 309 q 786 309 758 283 q 722 250 707 186 q 701 158 701 137 q 701 107 713 88 q 729 62 763 62 q 798 62 826 88 q 860 121 875 186 z m 612 187 q 631 272 702 332 q 760 381 836 381 q 913 381 948 332 q 978 290 978 235 q 978 212 972 186 q 951 99 880 39 q 823 -10 747 -10 q 669 -10 635 40 q 605 81 605 134 q 605 160 612 187 z m 465 552 q 471 579 471 601 q 471 629 460 648 q 443 675 409 675 q 375 675 347 649 q 312 616 296 552 q 290 524 290 503 q 290 473 302 454 q 319 428 352 428 q 387 428 415 455 q 450 487 465 552 z m 201 553 q 221 638 291 698 q 349 747 426 747 q 502 747 537 698 q 567 656 567 602 q 567 578 561 552 q 540 465 470 405 q 412 356 336 356 q 259 356 224 406 q 195 447 195 500 q 195 526 201 553 z m 358 -20 l 296 14 l 814 757 l 819 757 l 880 724 l 363 -20 z"},"m":{"x_min":0,"x_max":872,"ha":872,"o":"m 383 -20 l 449 269 q 463 329 463 367 q 463 386 459 399 q 443 464 386 464 q 331 464 284 399 q 254 359 233 269 q 220 215 220 174 q 220 154 223 138 q 235 74 289 53 l 235 -20 l 230 -20 q 154 14 132 103 q 124 137 124 175 q 124 219 135 269 q 158 369 208 434 q 296 547 406 547 q 503 547 542 457 q 622 547 719 547 q 827 547 864 434 q 874 404 874 366 q 874 321 861 269 q 833 150 722 83 l 842 83 l 841 78 l 787 0 l 558 0 l 559 5 l 614 83 q 683 125 713 163 q 750 210 763 269 q 777 328 777 366 q 777 386 773 399 q 757 464 700 464 q 645 464 597 399 q 568 359 547 269 l 491 24 l 388 -20 z"},"#":{"x_min":0,"x_max":668,"ha":668,"o":"m 244 108 l 277 254 l 132 254 l 133 259 l 192 343 l 298 343 l 310 396 l 165 396 l 166 400 l 225 484 l 331 484 l 355 590 l 448 630 l 453 630 l 419 484 l 472 484 l 497 590 l 590 630 l 595 630 l 561 484 l 707 484 l 706 479 l 646 396 l 541 396 l 528 343 l 674 343 l 673 338 l 614 254 l 508 254 l 483 148 l 390 108 l 385 108 l 419 254 l 366 254 l 342 148 l 249 108 z m 387 343 l 439 343 l 452 396 l 399 396 z"},",":{"x_min":0,"x_max":297,"ha":297,"o":"m 197 136 l 202 136 q 232 98 232 52 q 232 35 228 17 q 208 -76 72 -140 l 57 -115 q 124 -60 136 -10 q 139 2 139 13 q 139 59 94 92 z"},"n":{"x_min":0,"x_max":558,"ha":558,"o":"m 408 83 q 408 83 528 83 l 527 78 l 473 0 l 244 0 l 245 5 l 300 83 q 369 125 399 163 q 436 211 449 269 q 463 329 463 366 q 463 386 459 399 q 442 464 386 464 q 331 464 283 399 q 254 359 233 269 l 177 24 l 74 -20 l 69 -20 l 135 269 q 159 371 208 434 q 297 547 405 547 q 517 547 549 434 q 559 400 559 361 q 559 318 547 269 q 520 150 408 83 z"},"h":{"x_min":0,"x_max":582,"ha":582,"o":"m 93 -20 l 262 713 l 365 757 l 370 757 l 310 496 q 367 547 430 547 q 542 547 574 434 q 583 402 583 365 q 583 321 570 269 q 543 151 431 83 l 552 83 l 551 78 l 496 0 l 268 0 l 269 5 l 323 83 q 393 125 422 163 q 459 211 473 269 q 487 330 487 368 q 487 387 483 399 q 466 464 410 464 q 355 464 308 399 q 278 359 257 269 l 201 24 l 98 -20 z"},"z":{"x_min":0,"x_max":514,"ha":514,"o":"m 143 0 q 62 0 62 48 q 62 56 64 65 q 74 113 153 186 l 440 454 l 187 454 l 188 459 l 242 537 l 459 537 q 541 537 541 489 q 541 481 539 472 q 529 428 450 354 l 162 83 l 334 83 q 392 83 419 140 l 424 140 l 490 105 q 436 0 315 0 z"},"B":{"x_min":0,"x_max":682,"ha":682,"o":"m 83 -20 l 173 369 q 206 511 272 597 q 390 747 535 747 q 617 747 662 702 q 699 665 699 607 q 699 584 693 557 q 675 474 586 417 q 609 407 627 387 q 667 341 667 279 q 667 254 661 226 q 638 128 562 67 q 479 0 362 0 l 268 0 l 269 5 l 324 83 l 381 83 q 453 83 509 131 q 549 165 562 223 q 568 245 568 265 q 568 296 553 319 q 521 369 448 369 l 354 369 l 354 374 l 409 452 l 467 452 q 516 452 553 484 q 586 513 597 560 q 600 575 600 588 q 600 615 586 635 q 564 664 516 664 q 425 664 348 559 q 299 493 271 369 l 191 24 l 88 -20 z"},"K":{"x_min":0,"x_max":660,"ha":660,"o":"m 93 -20 l 262 713 l 365 757 l 370 757 l 285 389 l 635 757 l 640 757 l 717 716 l 436 427 q 559 427 619 343 q 644 308 644 265 q 644 248 640 228 q 618 132 501 83 l 630 83 l 629 78 l 575 0 l 305 0 l 306 5 l 360 83 q 423 93 470 127 q 528 169 542 228 q 544 238 544 249 q 544 278 522 304 q 488 344 417 344 q 353 344 298 293 q 253 252 239 188 l 201 24 l 98 -20 z"},"R":{"x_min":0,"x_max":702,"ha":702,"o":"m 83 -20 l 173 369 q 206 511 272 597 q 390 747 535 747 q 657 747 706 657 q 733 608 733 552 q 733 522 726 491 q 706 407 630 334 q 582 287 520 265 l 634 21 l 539 -20 l 534 -20 l 410 244 l 300 244 l 301 249 l 356 327 l 414 327 q 505 327 555 372 q 612 424 628 491 q 634 518 634 542 q 634 587 611 619 q 577 664 516 664 q 426 664 348 559 q 299 493 271 369 l 191 24 l 88 -20 z"},"T":{"x_min":0,"x_max":521,"ha":521,"o":"m 207 -20 l 363 654 l 304 654 q 246 654 218 597 l 213 597 l 148 632 q 202 737 323 737 l 688 737 l 687 732 l 632 654 l 460 654 l 315 24 l 212 -20 z"},"P":{"x_min":0,"x_max":671,"ha":671,"o":"m 83 -20 l 173 369 q 206 511 272 597 q 390 747 535 747 q 657 747 706 657 q 733 608 733 552 q 733 522 726 491 q 706 406 630 334 q 537 244 394 244 l 300 244 l 301 249 l 356 327 l 414 327 q 505 327 555 372 q 612 424 628 491 q 634 518 634 542 q 634 587 611 619 q 577 664 516 664 q 426 664 348 559 q 299 493 271 369 l 191 24 l 88 -20 z"},"|":{"x_min":0,"x_max":325,"ha":325,"o":"m 95 -117 l 311 818 l 396 854 l 400 854 l 185 -81 l 100 -117 z"},"t":{"x_min":0,"x_max":368,"ha":368,"o":"m 253 -20 q 151 -20 151 54 q 151 68 155 85 l 240 454 l 115 454 l 116 459 l 170 537 l 259 537 l 300 713 l 403 757 l 408 757 l 357 537 l 482 537 l 481 532 l 427 454 l 338 454 l 252 85 q 248 63 271 63 l 309 63 l 308 59 z"},"M":{"x_min":0,"x_max":1146,"ha":1146,"o":"m 520 -20 l 609 369 q 627 445 627 499 q 627 533 620 559 q 592 664 501 664 q 410 664 333 559 q 284 492 256 369 q 238 292 238 238 q 238 204 245 179 q 268 94 346 53 l 292 -20 l 288 -20 q 189 17 152 141 q 141 180 141 230 q 141 292 158 369 q 191 511 258 597 q 375 747 520 747 q 664 747 712 600 q 828 747 971 747 q 1117 747 1164 597 q 1176 558 1176 508 q 1176 446 1158 369 q 1125 224 1060 152 q 1019 108 978 83 l 1117 83 l 1116 78 l 1061 0 l 791 0 l 792 5 l 847 83 q 918 105 973 175 q 1033 250 1061 369 q 1078 445 1078 499 q 1078 533 1071 559 q 1043 664 952 664 q 861 664 784 559 q 736 493 707 369 l 628 24 l 525 -20 z"},"g":{"x_min":0,"x_max":573,"ha":573,"o":"m 276 -10 q 169 -10 132 103 q 123 133 123 171 q 123 215 135 269 q 159 371 208 434 q 297 547 405 547 q 514 547 549 434 q 559 403 559 365 q 559 321 547 269 l 500 68 q 478 -32 428 -97 q 342 -210 231 -210 l 113 -210 l 114 -205 l 169 -127 l 250 -127 q 311 -127 353 -62 q 384 -14 403 68 l 449 269 q 463 328 463 365 q 463 385 459 399 q 441 464 386 464 q 330 464 283 399 q 253 359 233 269 q 219 208 219 170 q 219 152 223 138 q 240 74 295 73 l 333 73 l 331 68 z"},"j":{"x_min":0,"x_max":293,"ha":293,"o":"m 246 687 q 252 712 273 729 q 294 747 319 747 q 344 747 356 729 q 366 717 366 702 q 366 696 364 687 q 356 661 337 645 q 315 627 291 627 q 266 627 253 646 q 244 657 244 671 q 244 678 246 687 z m -59 -210 l 1 -122 q 33 -106 62 -67 q 91 -28 112 63 l 216 513 l 319 557 l 324 557 l 210 63 q 187 -39 137 -102 q 48 -215 -60 -215 z"},"i":{"x_min":0,"x_max":293,"ha":293,"o":"m 246 687 q 252 712 273 729 q 294 747 319 747 q 344 747 356 729 q 366 717 366 702 q 366 696 364 687 q 356 661 337 645 q 315 627 291 627 q 266 627 253 646 q 244 657 244 671 q 244 678 246 687 z m 215 -20 q 113 -20 113 54 q 113 68 117 85 l 216 513 l 319 557 l 324 557 l 215 85 q 210 63 233 63 l 271 63 l 270 59 z"},"y":{"x_min":0,"x_max":583,"ha":583,"o":"m 613 557 l 500 68 q 478 -32 428 -97 q 342 -210 231 -210 l 113 -210 l 114 -205 l 169 -127 l 250 -127 q 311 -127 353 -62 q 381 -19 394 39 q 335 -10 276 -10 q 167 -10 132 103 q 123 133 123 171 q 123 214 135 269 q 162 387 274 454 l 154 454 l 155 459 l 209 537 l 438 537 l 437 532 l 382 454 q 314 413 283 374 q 247 327 233 269 q 219 209 219 172 q 219 152 223 138 q 241 73 296 73 q 352 73 399 138 q 428 178 449 269 l 505 513 l 608 557 z"},"@":{"x_min":0,"x_max":682,"ha":682,"o":"m 497 -20 l 450 -20 q 355 -13 317 24 q 281 60 281 110 q 281 127 286 146 q 305 231 377 280 q 438 320 530 327 l 570 327 q 571 335 571 343 q 571 374 555 406 q 523 464 455 464 q 364 464 287 358 q 240 295 210 168 q 192 92 192 38 q 192 3 199 -21 q 230 -127 318 -127 l 299 -210 q 155 -210 106 -60 q 94 -20 94 31 q 94 92 112 168 q 146 312 211 396 q 328 547 474 547 q 580 547 635 465 q 669 414 669 352 q 669 325 663 295 l 600 24 z m 555 251 q 466 250 426 224 q 386 196 377 154 q 375 145 375 136 q 375 108 396 84 q 420 58 510 58 z"},".":{"x_min":0,"x_max":293,"ha":293,"o":"m 99 50 q 105 75 126 92 q 147 110 172 110 q 197 110 209 92 q 219 80 219 64 q 219 59 217 50 q 209 24 190 8 q 168 -10 144 -10 q 119 -10 106 8 q 97 20 97 34 q 97 41 99 50 z"},"p":{"x_min":0,"x_max":568,"ha":568,"o":"m 32 -220 l 145 269 q 168 371 218 434 q 307 547 416 547 q 522 547 560 434 q 569 404 569 366 q 569 323 557 269 q 530 150 418 83 l 539 83 l 538 78 l 483 0 l 254 0 l 255 5 l 310 83 q 379 125 409 163 q 446 211 459 269 q 473 329 473 366 q 473 386 469 399 q 453 464 396 464 q 340 464 293 399 q 264 359 243 269 l 140 -176 l 37 -220 z"},"X":{"x_min":0,"x_max":624,"ha":624,"o":"m 129 -20 l 54 21 l 330 356 q 257 410 228 486 q 203 553 203 623 q 203 668 213 713 l 316 757 l 321 757 q 306 691 306 637 q 306 574 327 525 q 350 470 393 433 l 660 757 l 665 757 l 741 716 l 462 378 q 536 320 565 250 q 592 185 592 115 q 592 71 581 24 l 478 -20 l 473 -20 q 489 47 489 103 q 489 164 470 211 q 451 260 399 302 l 134 -20 z"},"*":{"x_min":0,"x_max":578,"ha":578,"o":"m 503 757 l 508 757 l 472 601 l 579 664 l 643 611 l 645 607 l 491 534 l 611 460 l 607 457 l 519 403 l 440 466 l 414 350 l 321 311 l 316 311 l 352 466 l 245 403 l 181 457 l 180 460 l 333 534 l 213 607 l 217 611 l 305 664 l 383 601 l 410 717 z"},"Y":{"x_min":0,"x_max":670,"ha":670,"o":"m 264 466 q 256 435 256 408 q 256 359 279 325 q 315 271 383 271 q 450 271 505 321 q 560 371 575 437 l 639 713 l 742 757 l 747 757 l 578 24 l 475 -20 l 470 -20 l 534 259 q 457 188 364 188 q 238 188 183 287 q 157 334 157 393 q 157 427 166 466 q 180 528 224 578 q 266 626 338 654 l 200 654 l 201 659 l 256 737 l 526 737 l 524 732 l 470 654 q 389 635 327 576 q 279 530 264 466 z"},"c":{"x_min":0,"x_max":536,"ha":536,"o":"m 520 184 q 500 137 474 103 q 386 -10 276 -10 q 170 -10 132 103 q 123 132 123 170 q 123 215 135 269 q 158 368 208 434 q 295 547 405 547 q 515 547 549 436 l 464 399 l 459 399 q 441 464 386 464 q 331 464 283 399 q 253 358 233 269 q 219 208 219 170 q 219 151 223 138 q 241 73 296 73 q 352 73 398 138 l 515 184 z"},"!":{"x_min":0,"x_max":293,"ha":293,"o":"m 99 50 q 105 75 126 92 q 147 110 172 110 q 197 110 209 92 q 219 80 219 64 q 219 57 217 50 q 210 24 190 8 q 168 -10 144 -10 q 119 -10 106 8 q 97 20 97 35 q 97 41 99 50 z m 365 757 l 370 757 l 253 249 l 150 205 l 145 205 l 262 713 z"},"/":{"x_min":0,"x_max":476,"ha":476,"o":"m 58 -68 l -3 -35 l 583 806 l 587 806 l 649 772 l 63 -68 z"},"[":{"x_min":0,"x_max":422,"ha":422,"o":"m 334 -117 l 193 -117 q 91 -117 91 -44 q 91 -30 95 -13 l 271 750 q 295 854 417 854 l 595 854 l 594 850 l 539 771 l 398 771 q 374 771 369 750 l 192 -13 q 188 -34 212 -34 l 390 -34 l 389 -39 z"},"6":{"x_min":0,"x_max":667,"ha":667,"o":"m 713 597 l 625 559 l 620 559 q 590 664 501 664 q 410 664 333 559 q 285 493 256 369 q 342 471 456 471 q 569 471 621 399 q 655 352 655 290 q 655 262 647 230 q 624 130 542 61 q 459 -10 345 -10 q 199 -10 152 141 q 140 180 140 230 q 140 292 158 369 q 192 512 258 597 q 375 747 520 747 q 666 747 713 597 z m 437 387 q 375 387 317 339 q 269 300 252 229 q 247 209 247 191 q 247 154 267 126 q 302 73 365 73 q 437 73 492 125 q 535 165 550 229 q 556 255 556 277 q 556 312 541 335 q 507 387 437 387 z"},"r":{"x_min":0,"x_max":354,"ha":354,"o":"m 69 -20 l 135 269 q 159 371 208 434 q 297 547 405 547 l 471 547 l 470 542 l 415 464 l 386 464 q 331 464 283 399 q 254 359 233 269 l 177 24 l 74 -20 z"},"2":{"x_min":0,"x_max":640,"ha":640,"o":"m 192 0 q 92 0 92 68 q 92 81 96 97 q 130 252 388 357 q 542 420 566 517 q 572 543 572 565 q 572 597 559 617 q 530 664 459 664 q 370 664 291 559 l 286 559 l 216 597 q 333 747 478 747 q 596 747 643 676 q 672 632 672 574 q 672 544 664 512 q 633 375 425 286 q 207 192 187 114 q 186 108 186 104 q 186 83 211 83 l 436 83 q 493 83 521 140 l 526 140 l 591 105 q 538 0 417 0 z"},"{":{"x_min":0,"x_max":440,"ha":440,"o":"m 352 -117 q 240 -117 187 -46 q 153 -1 153 62 q 153 93 161 127 l 207 324 l 99 324 l 101 329 l 159 413 l 227 413 l 273 610 q 297 716 379 784 q 464 854 576 854 l 613 854 l 612 850 l 557 771 q 486 771 433 723 q 387 681 371 610 l 259 127 q 252 99 252 76 q 252 40 268 15 q 300 -34 371 -34 l 408 -34 l 407 -39 z"},"9":{"x_min":0,"x_max":667,"ha":667,"o":"m 125 141 l 213 179 l 218 179 q 248 73 337 73 q 428 73 505 179 q 553 245 582 369 q 496 267 382 267 q 269 267 217 338 q 183 386 183 447 q 183 476 190 507 q 214 607 295 676 q 378 747 493 747 q 639 747 686 597 q 698 558 698 507 q 698 446 680 369 q 646 225 580 141 q 463 -10 318 -10 q 172 -10 125 141 z m 401 351 q 462 351 521 398 q 569 438 586 508 q 591 528 591 546 q 591 583 571 611 q 536 664 473 664 q 401 664 346 612 q 303 572 288 508 q 282 482 282 460 q 282 425 297 402 q 331 351 401 351 z"}," ":{"x_min":0,"x_max":391,"ha":391,"o":""},"I":{"x_min":0,"x_max":293,"ha":293,"o":"m 93 -20 l 262 713 l 365 757 l 370 757 l 201 24 l 98 -20 z"},"H":{"x_min":0,"x_max":710,"ha":710,"o":"m 93 -20 l 262 713 l 365 757 l 370 757 l 290 410 l 633 410 q 642 460 642 499 q 642 533 635 559 q 612 643 534 684 l 588 757 l 593 757 q 691 721 728 597 q 739 557 739 507 q 739 446 722 369 q 688 225 623 152 q 583 108 542 83 l 680 83 l 679 78 l 625 0 l 354 0 l 355 5 l 410 83 q 482 105 537 175 q 596 250 614 327 l 271 327 l 201 24 l 98 -20 z"},"4":{"x_min":0,"x_max":580,"ha":580,"o":"m 354 -20 l 399 175 l 159 175 q 78 175 78 224 q 78 231 80 241 q 87 276 122 313 l 534 757 q 613 757 613 693 q 613 679 609 661 l 516 258 l 600 258 l 599 253 l 544 175 l 497 175 l 462 24 l 359 -20 z m 418 258 l 501 616 l 171 258 z"},"~":{"x_min":0,"x_max":556,"ha":556,"o":"m 139 285 q 180 461 295 461 q 361 461 393 412 q 419 371 446 371 q 481 371 493 421 l 584 461 l 589 461 q 548 285 433 285 q 367 285 335 334 q 309 375 282 375 q 247 375 235 324 l 144 285 z"},"D":{"x_min":0,"x_max":710,"ha":710,"o":"m 83 -20 l 173 369 q 206 511 272 597 q 390 747 535 747 q 682 747 728 597 q 739 558 739 508 q 739 448 722 369 q 694 246 624 153 q 509 0 362 0 l 268 0 l 269 5 l 324 83 l 381 83 q 472 83 549 191 q 600 263 624 369 q 642 445 642 499 q 642 533 635 559 q 607 664 516 664 q 425 664 348 559 q 299 493 271 369 l 191 24 l 88 -20 z"},"^":{"x_min":0,"x_max":645,"ha":645,"o":"m 517 757 l 522 757 l 694 531 l 601 491 l 596 491 l 472 648 l 276 491 l 271 491 l 196 531 l 423 717 z"},"0":{"x_min":0,"x_max":695,"ha":695,"o":"m 256 369 q 238 291 238 237 q 238 203 245 178 q 274 73 365 73 q 454 73 532 179 q 581 244 609 369 q 627 445 627 499 q 627 533 620 559 q 592 664 501 664 q 411 664 333 559 q 284 492 256 369 z m 158 368 q 191 511 258 597 q 375 747 520 747 q 667 747 713 597 q 725 558 725 508 q 725 448 707 369 q 675 227 607 141 q 490 -10 345 -10 q 200 -10 152 140 q 140 178 140 229 q 140 292 158 368 z"},"F":{"x_min":0,"x_max":600,"ha":600,"o":"m 83 -20 l 173 369 q 206 512 272 597 q 390 747 535 747 q 681 747 728 597 l 640 559 l 635 559 q 606 664 516 664 q 425 664 348 559 q 308 504 281 410 l 559 410 l 558 405 l 503 327 l 261 327 l 191 24 l 88 -20 z"},"`":{"x_min":0,"x_max":316,"ha":316,"o":"m 334 757 l 339 757 l 379 588 l 315 562 l 311 562 l 238 716 z"},"k":{"x_min":0,"x_max":576,"ha":576,"o":"m 93 -20 l 262 713 l 365 757 l 370 757 l 276 350 l 511 557 l 516 557 l 593 516 l 413 367 q 481 358 517 322 q 553 285 553 237 q 553 222 549 205 q 532 130 426 83 l 546 83 l 545 78 l 491 0 l 262 0 l 263 5 l 318 83 q 361 96 398 124 q 440 155 452 205 q 454 216 454 225 q 454 251 436 270 q 416 289 367 289 q 323 289 287 264 q 250 238 237 182 l 201 24 l 98 -20 z"},"u":{"x_min":0,"x_max":573,"ha":573,"o":"m 613 557 l 547 269 q 523 167 474 103 q 385 -10 277 -10 q 165 -10 133 103 q 124 136 124 174 q 124 218 135 269 q 163 387 274 454 l 154 454 l 155 459 l 209 537 l 438 537 l 437 532 l 382 454 q 314 413 283 374 q 247 327 233 269 q 219 209 219 172 q 219 152 223 138 q 241 73 296 73 q 352 73 399 138 q 428 178 449 269 l 505 513 l 608 557 z"},"]":{"x_min":0,"x_max":422,"ha":422,"o":"m -2 -117 l -1 -112 l 53 -34 l 194 -34 q 219 -34 224 -13 l 400 750 q 405 771 380 771 l 203 771 l 204 776 l 258 854 l 399 854 q 501 854 501 781 q 501 767 498 750 l 321 -13 q 297 -117 175 -117 z"},"U":{"x_min":0,"x_max":720,"ha":720,"o":"m 797 757 l 707 369 q 674 228 607 141 q 491 -10 345 -10 q 199 -10 152 141 q 140 180 140 230 q 140 292 158 369 q 192 513 257 585 q 298 630 338 654 l 200 654 l 201 659 l 256 737 l 526 737 l 524 732 l 470 654 q 398 632 344 562 q 282 485 256 369 q 238 292 238 237 q 238 203 245 179 q 274 73 365 73 q 455 73 532 179 q 581 245 609 369 l 689 713 l 792 757 z"},"o":{"x_min":0,"x_max":558,"ha":558,"o":"m 233 269 q 219 208 219 170 q 219 151 223 138 q 241 73 296 73 q 351 73 398 138 q 429 179 449 269 q 463 329 463 366 q 463 386 459 399 q 442 464 386 464 q 329 464 282 398 q 253 359 233 269 z m 135 268 q 159 371 208 434 q 297 547 405 547 q 514 547 549 434 q 559 403 559 365 q 559 322 547 269 q 522 164 474 103 q 384 -10 276 -10 q 170 -10 132 103 q 123 132 123 169 q 123 212 135 268 z"},"N":{"x_min":0,"x_max":710,"ha":710,"o":"m 83 -20 l 173 369 q 206 511 272 597 q 390 747 535 747 q 680 747 728 597 q 740 558 740 508 q 740 446 722 369 q 688 224 623 152 q 583 108 542 83 l 680 83 l 679 78 l 625 0 l 354 0 l 355 5 l 410 83 q 481 105 537 175 q 597 250 624 369 q 642 445 642 499 q 642 533 635 559 q 607 664 516 664 q 424 664 348 559 q 299 492 271 369 l 191 24 l 88 -20 z"},"+":{"x_min":0,"x_max":593,"ha":593,"o":"m 473 592 l 478 592 l 436 413 l 615 413 l 614 408 l 555 324 l 416 324 l 383 185 l 291 146 l 286 146 l 327 324 l 148 324 l 149 329 l 208 413 l 347 413 l 379 552 z"},"G":{"x_min":0,"x_max":695,"ha":695,"o":"m 717 410 l 707 369 q 674 228 607 141 q 491 -10 345 -10 q 200 -10 152 141 q 140 179 140 229 q 140 291 158 369 q 191 511 258 597 q 375 747 520 747 q 666 747 713 597 l 625 559 l 620 559 q 592 664 501 664 q 411 664 333 559 q 284 492 256 369 q 238 291 238 237 q 238 204 245 179 q 274 73 365 73 q 454 73 532 179 q 572 233 599 327 l 415 327 l 416 332 l 471 410 z"},"q":{"x_min":0,"x_max":568,"ha":568,"o":"m 444 -176 l 341 -220 l 336 -220 l 449 269 q 463 330 463 367 q 463 386 459 399 q 441 464 386 464 q 331 464 284 399 q 254 359 233 269 q 219 209 219 172 q 219 152 223 138 q 241 74 295 73 l 333 73 l 332 68 l 277 -10 q 168 -10 133 103 q 123 134 123 172 q 123 215 135 269 q 160 372 208 434 q 296 547 406 547 q 512 547 550 434 q 560 405 560 367 q 560 324 547 269 z"},"d":{"x_min":0,"x_max":573,"ha":573,"o":"m 660 757 l 547 269 q 524 167 474 103 q 386 -10 277 -10 q 170 -10 133 103 q 123 133 123 171 q 123 214 135 269 q 163 387 274 454 l 154 454 l 155 459 l 209 537 l 438 537 l 437 532 l 382 454 q 314 413 283 374 q 247 327 233 269 q 219 209 219 172 q 219 152 223 138 q 241 73 296 73 q 352 73 399 138 q 428 178 449 269 l 552 713 l 655 757 z"},"1":{"x_min":0,"x_max":349,"ha":349,"o":"m 125 -20 l 282 661 l 138 556 l 161 656 l 304 757 q 383 757 383 693 q 383 679 379 661 l 232 24 l 129 -20 z"},"5":{"x_min":0,"x_max":620,"ha":620,"o":"m 105 141 l 193 179 l 198 179 q 228 73 318 73 q 387 73 441 123 q 488 165 502 229 q 508 253 508 272 q 508 314 484 339 q 449 376 387 376 q 337 376 288 345 l 197 395 l 308 632 q 358 737 483 737 l 676 737 l 675 732 l 620 654 l 471 654 q 414 654 385 597 l 302 431 q 353 462 408 462 q 511 462 565 403 q 607 358 607 291 q 607 263 600 230 q 576 129 496 61 q 413 -10 298 -10 q 153 -10 105 141 z"}}}
